<?xml version="1.0" encoding="UTF-8"?> <svg xmlns="http://www.w3.org/2000/svg" xmlns:xlink="http://www.w3.org/1999/xlink" version="1.1" id="Calque_1" x="0px" y="0px" viewBox="0 0 1200 424.9" style="enable-background:new 0 0 1200 424.9;" xml:space="preserve"> <style type="text/css"> .st0{fill:#08672F;} .st1{fill:#4B4B4D;} .st2{fill:#4C4B4D;} </style> <g> <g> <g> <path class="st0" d="M183.1,10.8L93.3,176.6c-2,3.7,0.7,8.1,4.8,8.1h135c3.6,0,6.3-3.4,5.3-6.9L193.2,12 C191.9,7.2,185.4,6.5,183.1,10.8z"></path> <path class="st0" d="M99,203.3l105.8,123.8c3,3.5,8.7,2,9.6-2.5l25.1-123.8c0.7-3.4-1.9-6.6-5.4-6.6H103.2 C98.5,194.2,96,199.7,99,203.3z"></path> <path class="st0" d="M311.9,137.7L209.6,13.1c-2.8-3.4-8.3-0.6-7.1,3.7L247,179.5c0.7,2.7,3.9,3.9,6.2,2.3l57.9-38.1 C313.1,142.4,313.5,139.6,311.9,137.7z"></path> <path class="st0" d="M305.9,153.9l-48.7,32c-5.2,3.4-8.7,8.7-10,14.7l-22.8,112.7c-0.4,2.1,2.4,3,3.4,1.2l80.7-158.3 C309.4,154.6,307.5,152.9,305.9,153.9z"></path> </g> <g> <path class="st1" d="M544.8,75.6c-1.3,2.7-2.9,4.6-4.7,5.7s-3.9,1.7-6.3,1.7c-2.5,0-5.2-0.9-8.3-2.8s-6.7-4-10.8-6.3 c-4.2-2.3-9-4.4-14.6-6.3s-12.2-2.8-19.7-2.8c-6.9,0-12.8,0.8-17.9,2.5s-9.4,3.9-12.9,6.9c-3.5,2.9-6.1,6.5-7.8,10.6 c-1.7,4.1-2.6,8.6-2.6,13.5c0,6.2,1.7,11.5,5.2,15.6c3.5,4.2,8.1,7.7,13.9,10.7s12.3,5.6,19.7,7.9c7.3,2.3,14.9,4.8,22.5,7.4 c7.7,2.6,15.2,5.7,22.5,9.2s13.9,7.9,19.7,13.2s10.4,11.9,13.9,19.6c3.5,7.7,5.2,17.1,5.2,28.1c0,12-2.1,23.2-6.2,33.7 c-4.1,10.5-10.1,19.6-18,27.4c-7.9,7.8-17.5,13.9-28.9,18.4s-24.4,6.7-39.1,6.7c-8.5,0-16.8-0.8-25-2.5s-16.1-4-23.6-7.1 s-14.6-6.7-21.1-11c-6.6-4.3-12.4-9.1-17.5-14.3l14.3-23.7c1.3-1.7,3-3.1,4.9-4.3s4-1.7,6.3-1.7c3.1,0,6.4,1.3,9.9,3.8 c3.6,2.5,7.7,5.3,12.6,8.4c4.8,3.1,10.5,5.9,17.1,8.4c6.5,2.5,14.4,3.8,23.6,3.8c14.1,0,25-3.3,32.7-10s11.6-16.3,11.6-28.8 c0-7-1.7-12.7-5.2-17.1s-8.1-8.1-13.9-11.1s-12.3-5.5-19.7-7.6c-7.3-2.1-14.8-4.3-22.4-6.8c-7.6-2.4-15.1-5.4-22.4-8.8 c-7.3-3.4-13.9-7.9-19.7-13.4c-5.8-5.5-10.4-12.4-13.9-20.7s-5.2-18.5-5.2-30.6c0-9.7,1.9-19.1,5.8-28.3s9.5-17.3,16.9-24.4 s16.5-12.8,27.3-17.1s23.1-6.4,36.9-6.4c15.7,0,30.1,2.5,43.4,7.3c13.2,4.9,24.5,11.8,33.8,20.6L544.8,75.6z"></path> <path class="st1" d="M647.1,292.9h-49.6V27.3h49.6V292.9z"></path> <path class="st1" d="M932.3,292.9H894c-4.3,0-7.8-1.1-10.6-3.2s-4.8-4.8-6-8l-19.8-54.2h-110l-19.8,54.2c-1,2.8-2.9,5.4-5.8,7.7 c-2.9,2.3-6.4,3.5-10.6,3.5H673L777.4,27.3h50.5L932.3,292.9z M760.3,192.6H845l-32.3-88.4c-1.5-3.9-3.1-8.5-4.9-13.9 c-1.8-5.3-3.5-11.1-5.2-17.4c-1.7,6.2-3.4,12.1-5.1,17.5c-1.7,5.4-3.3,10.1-4.9,14.1L760.3,192.6z"></path> <path class="st1" d="M1001,252.2h106.4V293H951.5V27.3h49.4L1001,252.2L1001,252.2z"></path> </g> </g> <g> <path class="st2" d="M402.5,341.5c1.5,0,2.2,0.7,2.2,2.2v4.8c0,1.5-0.7,2.2-2.2,2.2h-3.4c-1.5,0-2.2-0.7-2.2-2.2v-4.8 c0-1.5,0.7-2.2,2.2-2.2H402.5z M404.4,359v41h-7.1v-41H404.4z"></path> <path class="st2" d="M429.2,359l0.6,7.8l0.5,1.3V400h-7.2v-41H429.2z M448.1,357.9c7.4,0,11.1,3.8,11.1,11.3V400H452v-28.7 c0-2.8-0.4-4.6-1.3-5.7c-0.9-1-2.4-1.6-4.5-1.6c-2.5,0-5,0.6-7.6,1.9c-2.5,1.2-5.5,2.9-9,5.1l-0.3-5.1c3.2-2.5,6.4-4.4,9.5-5.8 C441.9,358.6,445,357.9,448.1,357.9z"></path> <path class="st2" d="M482,381.4l4.1,0.6c-1,0.8-1.6,1.9-1.9,3.1s-0.2,2.3,0.3,3.3s1.7,1.7,3.4,1.9l15.3,2.4 c3.9,0.6,6.6,1.8,8.1,3.6c1.5,1.9,2.3,4.5,2.3,7.9c0,3.2-0.6,5.7-1.8,7.6s-3.2,3.2-6.1,4s-6.7,1.2-11.6,1.2 c-3.7,0-6.8-0.2-9.3-0.6s-4.6-1.1-6.1-2.1s-2.7-2.3-3.3-3.8c-0.7-1.6-1-3.5-1-5.9c0-1.8,0.3-3.3,0.8-4.5s1.4-2.3,2.5-3.2 c1.1-1,2.7-1.9,4.5-2.8l5-2.8l3.3,1.2l-4.1,3.1c-1.1,0.8-2.1,1.7-2.8,2.5c-0.8,0.8-1.3,1.7-1.7,2.6c-0.4,0.9-0.5,2-0.5,3.3 c0,1.9,0.4,3.4,1.1,4.4s2,1.7,3.9,2.1s4.4,0.5,7.7,0.5c3.3,0,5.9-0.2,7.7-0.6c1.8-0.4,3.1-1.1,3.8-2.1c0.7-1,1.1-2.4,1.1-4.3 c0-1.4-0.2-2.5-0.5-3.2c-0.4-0.7-1.1-1.3-2.1-1.7s-2.5-0.7-4.5-1l-14.7-2c-1.7-0.2-3.1-0.8-4.2-1.7c-1-0.9-1.8-2-2.1-3.2 c-0.4-1.2-0.5-2.5-0.3-3.7c0.2-1.3,0.6-2.4,1.3-3.5C480.1,382.7,480.9,381.9,482,381.4z M493.6,357.9c4.4,0,7.8,0.4,10.4,1.3 s4.4,2.3,5.5,4.2c1.1,1.9,1.6,4.4,1.6,7.5c0,3-0.5,5.4-1.6,7.4c-1.1,1.9-2.9,3.4-5.5,4.3s-6.1,1.4-10.4,1.4 c-4.4,0-7.8-0.5-10.4-1.4s-4.4-2.3-5.5-4.3s-1.6-4.4-1.6-7.3c0-3.1,0.5-5.6,1.6-7.5s2.9-3.4,5.5-4.3 C485.8,358.4,489.2,357.9,493.6,357.9z M493.5,363.4c-4.1,0-6.9,0.6-8.5,1.7c-1.6,1.2-2.4,3.1-2.4,5.8c0,2.7,0.8,4.6,2.4,5.8 c1.6,1.2,4.4,1.8,8.5,1.8c4.2,0,7-0.6,8.6-1.8c1.6-1.2,2.4-3.1,2.4-5.8c0-2.7-0.8-4.7-2.4-5.8C500.6,364,497.7,363.4,493.5,363.4z M515.9,359l-0.4,4l-10.4,0.8l-2.9-4.8H515.9z"></path> <path class="st2" d="M546.2,357.9c6.2,0,10.7,1.1,13.4,3.4c2.8,2.2,4.2,5.6,4.2,10c0.1,3.7-0.7,6.5-2.3,8.5s-4.1,3.1-7.5,3.1 h-23.9v-5.6h22.1c1.9,0,3.1-0.6,3.6-1.9c0.6-1.3,0.8-2.7,0.8-4.2c-0.1-2.6-0.8-4.5-2.4-5.6c-1.5-1.1-4.1-1.7-7.7-1.7 c-3,0-5.3,0.4-7,1.3s-2.9,2.4-3.6,4.5c-0.7,2.2-1.1,5.2-1.1,9.1c0,4.4,0.4,7.7,1.3,10c0.9,2.3,2.3,3.9,4.2,4.7 c1.9,0.8,4.4,1.3,7.6,1.3c2.2,0,4.6-0.1,7.2-0.3c2.6-0.2,5-0.4,7-0.7l0.8,4.8c-1.3,0.5-2.9,0.9-4.8,1.3c-1.9,0.3-3.8,0.6-5.8,0.8 c-2,0.2-3.8,0.3-5.3,0.3c-4.7,0-8.5-0.7-11.4-2.1s-5-3.7-6.3-6.9c-1.3-3.2-2-7.4-2-12.6c0-5.4,0.7-9.6,2-12.8 c1.3-3.1,3.4-5.3,6.1-6.7C538.2,358.6,541.8,357.9,546.2,357.9z M554.9,337.6l4.1,5.6l-16.2,10.1l-2.4-3.3L554.9,337.6z"></path> <path class="st2" d="M585.9,359l0.6,7.8l0.5,1.3V400h-7.2v-41H585.9z M604.8,357.9c7.4,0,11.1,3.8,11.1,11.3V400h-7.2v-28.7 c0-2.8-0.4-4.6-1.3-5.7c-0.9-1-2.4-1.6-4.5-1.6c-2.5,0-5,0.6-7.6,1.9c-2.5,1.2-5.5,2.9-9,5.1l-0.3-5.1c3.2-2.5,6.4-4.4,9.5-5.8 C598.6,358.6,601.7,357.9,604.8,357.9z"></path> <path class="st2" d="M639.6,341.5c1.5,0,2.2,0.7,2.2,2.2v4.8c0,1.5-0.7,2.2-2.2,2.2h-3.4c-1.5,0-2.2-0.7-2.2-2.2v-4.8 c0-1.5,0.7-2.2,2.2-2.2H639.6z M641.5,359v41h-7.1v-41H641.5z"></path> <path class="st2" d="M677.1,357.9c6.2,0,10.7,1.1,13.4,3.4c2.8,2.2,4.2,5.6,4.2,10c0.1,3.7-0.7,6.5-2.3,8.5s-4.1,3.1-7.5,3.1H661 v-5.6h22.1c1.9,0,3.1-0.6,3.6-1.9c0.6-1.3,0.8-2.7,0.8-4.2c-0.1-2.6-0.8-4.5-2.4-5.6c-1.5-1.1-4.1-1.7-7.7-1.7c-3,0-5.3,0.4-7,1.3 s-2.9,2.4-3.6,4.5c-0.7,2.2-1.1,5.2-1.1,9.1c0,4.4,0.4,7.7,1.3,10c0.9,2.3,2.3,3.9,4.2,4.7c1.9,0.8,4.4,1.3,7.6,1.3 c2.2,0,4.6-0.1,7.2-0.3c2.6-0.2,5-0.4,7-0.7l0.8,4.8c-1.3,0.5-2.9,0.9-4.8,1.3c-1.9,0.3-3.8,0.6-5.8,0.8c-2,0.2-3.8,0.3-5.3,0.3 c-4.7,0-8.5-0.7-11.4-2.1s-5-3.7-6.3-6.9c-1.3-3.2-2-7.4-2-12.6c0-5.4,0.7-9.6,2-12.8c1.3-3.1,3.4-5.3,6.1-6.7 C669.2,358.6,672.7,357.9,677.1,357.9z"></path> <path class="st2" d="M716.4,359l0.9,7.8l0.7,1.3V400h-7.2v-41H716.4z M736.5,357.9l-0.8,6.7h-2.4c-2.4,0-4.8,0.5-7.2,1.5 s-5.4,2.4-8.8,4.2l-0.6-4.5c3-2.5,6.1-4.4,9.1-5.8c3.1-1.4,6-2.1,8.9-2.1L736.5,357.9L736.5,357.9z"></path> <path class="st2" d="M755.4,341.5c1.5,0,2.2,0.7,2.2,2.2v4.8c0,1.5-0.7,2.2-2.2,2.2H752c-1.5,0-2.2-0.7-2.2-2.2v-4.8 c0-1.5,0.7-2.2,2.2-2.2H755.4z M757.3,359v41h-7.1v-41H757.3z"></path> <path class="st2" d="M792.9,357.9c6.2,0,10.7,1.1,13.4,3.4c2.8,2.2,4.2,5.6,4.2,10c0.1,3.7-0.7,6.5-2.3,8.5s-4.1,3.1-7.5,3.1 h-23.9v-5.6h22.1c1.9,0,3.1-0.6,3.6-1.9c0.6-1.3,0.8-2.7,0.8-4.2c-0.1-2.6-0.8-4.5-2.4-5.6c-1.5-1.1-4.1-1.7-7.7-1.7 c-3,0-5.3,0.4-7,1.3s-2.9,2.4-3.6,4.5c-0.7,2.2-1.1,5.2-1.1,9.1c0,4.4,0.4,7.7,1.3,10c0.9,2.3,2.3,3.9,4.2,4.7 c1.9,0.8,4.4,1.3,7.6,1.3c2.2,0,4.6-0.1,7.2-0.3c2.6-0.2,5-0.4,7-0.7l0.8,4.8c-1.3,0.5-2.9,0.9-4.8,1.3c-1.9,0.3-3.8,0.6-5.8,0.8 c-2,0.2-3.8,0.3-5.3,0.3c-4.7,0-8.5-0.7-11.4-2.1s-5-3.7-6.3-6.9c-1.3-3.2-2-7.4-2-12.6c0-5.4,0.7-9.6,2-12.8 c1.3-3.1,3.4-5.3,6.1-6.7C784.9,358.6,788.5,357.9,792.9,357.9z"></path> <path class="st2" d="M864.3,357.9c2.7,0,5.4,0.4,8,1.1s5.2,1.8,7.6,3.2l-0.4,4.5c-2.6-0.8-5-1.4-7-1.9c-2-0.4-4.2-0.7-6.5-0.7 c-2.4,0-4.3,0.4-5.7,1.2c-1.4,0.8-2.5,2.3-3.2,4.5s-1,5.3-1,9.3s0.3,7.2,1,9.4c0.6,2.2,1.7,3.8,3.1,4.7c1.4,0.9,3.2,1.3,5.4,1.3 c1.6,0,3.1-0.2,4.4-0.6c1.3-0.4,2.7-1.1,4.2-2.1s3.2-2.2,5.3-3.6l0.7,5c-2.2,2.1-4.8,3.8-7.7,5.3s-6,2.2-9.3,2.2 c-5.2,0-8.9-1.8-11.1-5.5c-2.2-3.6-3.3-9-3.3-16.2c0-5.3,0.6-9.6,1.7-12.7c1.1-3.1,2.8-5.3,5.1-6.7 C857.9,358.6,860.8,357.9,864.3,357.9z M885.7,341v59h-5.6l-0.8-7.2l-0.8-0.6v-28.1l0.5-1.3c-0.2-1.6-0.4-3.1-0.4-4.5 c-0.1-1.5-0.1-3-0.1-4.6V341H885.7z"></path> <path class="st2" d="M911.1,359v28.8c-0.1,2.6,0.4,4.4,1.4,5.5s2.7,1.6,5.1,1.6c2.3,0,4.6-0.5,6.9-1.6c2.3-1.1,5-2.7,8.2-4.8 l0.9,5c-3.2,2.5-6.3,4.4-9.3,5.7c-3,1.3-6,1.9-9.1,1.9c-7.5,0-11.2-3.8-11.2-11.3V359H911.1z M939.1,359v41h-5.7l-0.7-7.7 l-0.8-1.3v-32H939.1z"></path> <path class="st2" d="M995.2,357.9c1.8,0,3.7,0.1,5.7,0.2s4,0.3,6,0.4c2,0.2,3.8,0.4,5.5,0.7l-0.6,5.2c-2.6-0.1-5.2-0.2-7.8-0.3 c-2.6-0.1-5.2-0.1-7.8-0.1c-2.5-0.1-4.5,0-6,0.2s-2.5,0.6-3.2,1.3c-0.6,0.7-1,2-1,3.7c0,2.1,0.5,3.5,1.5,4.2s2.5,1.2,4.5,1.7 l12,2.7c3.3,0.8,5.7,2,7.2,3.6s2.3,4.2,2.3,7.7c0,3.4-0.6,5.9-1.9,7.6c-1.3,1.7-3.2,2.8-5.8,3.4s-5.9,0.8-9.8,0.8 c-1.5,0-3.6-0.1-6.5-0.2s-6.1-0.5-9.6-1l0.5-5.2c1.3,0.1,2.8,0.1,4.3,0.2s3.1,0.1,4.8,0.1s3.4,0,5.1,0c3.1,0,5.5-0.1,7.2-0.4 s3-0.8,3.7-1.6s1.1-2,1.1-3.7c0-2-0.6-3.4-1.8-4c-1.2-0.7-2.8-1.2-4.7-1.7l-11.8-2.7c-2.2-0.6-4-1.3-5.4-2.2 c-1.3-0.9-2.3-2.1-2.9-3.6c-0.6-1.5-0.9-3.4-0.9-5.6c0-3.2,0.6-5.6,1.7-7.2c1.1-1.6,2.9-2.7,5.2-3.3 C988.5,358.1,991.5,357.9,995.2,357.9z"></path> <path class="st2" d="M1047,357.9c4.7,0,8.5,0.7,11.3,2.1s4.9,3.7,6.1,6.9c1.2,3.2,1.9,7.4,1.9,12.6s-0.6,9.4-1.9,12.6 c-1.2,3.2-3.3,5.5-6.1,6.9c-2.8,1.4-6.6,2.1-11.3,2.1c-4.7,0-8.4-0.7-11.2-2.1c-2.8-1.4-4.9-3.7-6.1-6.9 c-1.3-3.2-1.9-7.4-1.9-12.6s0.6-9.4,1.9-12.6s3.3-5.5,6.1-6.9S1042.4,357.9,1047,357.9z M1047,364c-3,0-5.3,0.5-7,1.4 s-2.9,2.5-3.7,4.8c-0.7,2.2-1.1,5.4-1.1,9.3c0,4,0.4,7.1,1.1,9.3c0.7,2.2,2,3.8,3.7,4.8c1.7,0.9,4.1,1.4,7,1.4 c3,0,5.3-0.5,7.1-1.4c1.7-0.9,3-2.5,3.7-4.8c0.7-2.2,1.1-5.4,1.1-9.3c0-4-0.4-7.1-1.1-9.3c-0.7-2.2-2-3.8-3.7-4.8 C1052.4,364.5,1050,364,1047,364z"></path> <path class="st2" d="M1090.1,341l-0.1,47.7c0,1.8,0.5,3.2,1.5,4.1s2.4,1.4,4.2,1.4h4l0.8,5.5c-0.5,0.2-1.2,0.4-2.1,0.6 s-1.9,0.3-2.9,0.4s-1.8,0.1-2.5,0.1c-3,0-5.5-0.9-7.3-2.7s-2.7-4.4-2.7-7.7V341H1090.1z"></path> </g> </g> </svg> 